# xmcd
#
# Track frame offsets:
# 150
# 18426
# 47836
# 68022
# 83857
# 99397
# 119487
# 137890
# 160680
# 181363
#
# Disc length: 2697 seconds
#
# Revision: 1
# Processed by: cddbd v1.5.1PL0 Copyright (c) Steve Scherf et al.
# Submitted via: plextools 2.19a
#
DISCID=800a870a
DTITLE=MASAYOSHI MINOSHIMA - 東方幻樂編曲集第参集　禅-ZEN-
DYEAR=2005
DGENRE=Game
TTITLE0=MASAYOSHI MINOSHIMA - 紅桜〜Eastern Dream...
TTITLE1=MASAYOSHI MINOSHIMA - メイドと血の懐中時計
TTITLE2=MASAYOSHI MINOSHIMA - 明治十七年の上海アリス
TTITLE3=MASAYOSHI MINOSHIMA - 妖魔夜行
TTITLE4=MASAYOSHI MINOSHIMA - 幽霊楽団
TTITLE5=MASAYOSHI MINOSHIMA - ブクレシュティの人形師
TTITLE6=MASAYOSHI MINOSHIMA - シンデレラケージ〜kagome-kagome
TTITLE7=MASAYOSHI MINOSHIMA - 狂気の瞳〜Invisible Full Moon
TTITLE8=MASAYOSHI MINOSHIMA - 東方妖怪小町
TTITLE9=MASAYOSHI MINOSHIMA - 竹取飛翔
EXTD=YEAR: 2005
EXTT0=
EXTT1=
EXTT2=
EXTT3=
EXTT4=
EXTT5=
EXTT6=
EXTT7=
EXTT8=
EXTT9=
PLAYORDER=
